<svg xmlns="http://www.w3.org/2000/svg" version="1.1" xmlns:xlink="http://www.w3.org/1999/xlink" xmlns:svgjs="http://svgjs.dev/svgjs" width="1500" height="1500" viewBox="0 0 1500 1500"><rect width="1500" height="1500" fill="#ffffff"></rect><g transform="matrix(0.6666666666666666,0,0,0.6666666666666666,249.39393939393938,435.99032258064517)"><svg viewBox="0 0 396 248" data-background-color="#19b651" preserveAspectRatio="xMidYMid meet" height="939" width="1500" xmlns="http://www.w3.org/2000/svg" xmlns:xlink="http://www.w3.org/1999/xlink"><g id="tight-bounds" transform="matrix(1,0,0,1,0.2400000000000091,0.4000000000000057)"><svg viewBox="0 0 395.52 247.2" height="247.2" width="395.52"><g><svg></svg></g><g><svg viewBox="0 0 395.52 247.2" height="247.2" width="395.52"><g transform="matrix(1,0,0,1,77.69760097853113,47.215199999999996)"><svg viewBox="0 0 240.12479804293773 152.7696" height="152.7696" width="240.12479804293773"><g><svg viewBox="0 0 240.12479804293773 152.7696" height="152.7696" width="240.12479804293773"><g><svg viewBox="0 0 244.43135999999998 155.50947423588784" height="152.7696" width="240.12479804293773"><g transform="matrix(1,0,0,1,0,94.05800284897951)"><svg viewBox="0 0 244.43135999999998 61.45147138690832" height="61.45147138690832" width="244.43135999999998"><g id="textblocktransform"><svg viewBox="0 0 244.43135999999998 61.45147138690832" height="61.45147138690832" width="244.43135999999998" id="textblock"><g><svg viewBox="0 0 244.43135999999998 38.68275213182286" height="38.68275213182286" width="244.43135999999998"><g transform="matrix(1,0,0,1,0,0)"><svg width="244.43135999999998" viewBox="3.7 -36.25 291.28000000000003 46.1" height="38.68275213182286" data-palette-color="#e9f443"><path d="M36.35-23.85Q36.35-20.7 34.65-18.15 32.95-15.6 29.7-14.4L29.7-14.4 37.35 0 24.95 0 18.85-12.55 14.75-12.55 14.75 0 3.7 0 3.7-34.4 24.75-34.4Q28.45-34.4 31.08-32.98 33.7-31.55 35.02-29.13 36.35-26.7 36.35-23.85L36.35-23.85ZM25.1-23.4Q25.1-24.75 24.2-25.65 23.3-26.55 22-26.55L22-26.55 14.75-26.55 14.75-20.2 22-20.2Q23.3-20.2 24.2-21.13 25.1-22.05 25.1-23.4L25.1-23.4ZM54.3-27Q61.55-27 65.37-23.6 69.2-20.2 69.2-13.2L69.2-13.2 69.2-11.5 49.4-11.5Q49.4-8.65 50.67-7.2 51.95-5.75 54.7-5.75L54.7-5.75Q57.2-5.75 58.37-6.8 59.55-7.85 59.55-9.6L59.55-9.6 69.2-9.6Q69.2-4.8 65.55-2.1 61.9 0.6 54.9 0.6L54.9 0.6Q47.55 0.6 43.5-2.83 39.45-6.25 39.45-13.2L39.45-13.2Q39.45-20 43.4-23.5 47.35-27 54.3-27L54.3-27ZM54.7-20.65Q50-20.65 49.45-16.2L49.45-16.2 59.15-16.2Q59.15-18.25 57.97-19.45 56.8-20.65 54.7-20.65L54.7-20.65ZM87.65-27Q94.15-27 98.17-24.23 102.2-21.45 102.2-15.75L102.2-15.75 92.55-15.75Q92.55-20.25 87.65-20.25L87.65-20.25Q82.75-20.25 82.75-14.6L82.75-14.6 82.75-11.75Q82.75-6.15 87.84-6.15L87.84-6.15Q92.95-6.15 92.95-10.75L92.95-10.75 102.2-10.75Q102.2-5 98.17-2.2 94.15 0.6 87.65 0.6L87.65 0.6Q80.7 0.6 76.75-2.9 72.8-6.4 72.8-13.2L72.8-13.2Q72.8-20 76.75-23.5 80.7-27 87.65-27L87.65-27ZM117.64-29.5L107.69-29.5 107.69-36.25 117.64-36.25 117.64-29.5ZM117.64 0L107.69 0 107.69-26.4 117.64-26.4 117.64 0ZM141.39-27Q146.74-27 149.64-23.5 152.54-20 152.54-13.15L152.54-13.15Q152.54-6.35 149.64-2.88 146.74 0.6 141.39 0.6L141.39 0.6Q136.79 0.6 133.99-2.4L133.99-2.4 133.99 9.85 124.04 9.85 124.04-26.4 132.14-26.4 132.99-22.65Q135.89-27 141.39-27L141.39-27ZM138.29-19.65Q136.09-19.65 134.99-18.1 133.89-16.55 133.89-14.05L133.89-14.05 133.89-12.4Q133.89-9.9 134.99-8.33 136.09-6.75 138.29-6.75L138.29-6.75Q142.59-6.75 142.59-11.9L142.59-11.9 142.59-14.55Q142.59-19.65 138.29-19.65L138.29-19.65ZM170.99-27Q178.24-27 182.06-23.6 185.89-20.2 185.89-13.2L185.89-13.2 185.89-11.5 166.09-11.5Q166.09-8.65 167.36-7.2 168.64-5.75 171.39-5.75L171.39-5.75Q173.89-5.75 175.06-6.8 176.24-7.85 176.24-9.6L176.24-9.6 185.89-9.6Q185.89-4.8 182.24-2.1 178.59 0.6 171.59 0.6L171.59 0.6Q164.24 0.6 160.19-2.83 156.14-6.25 156.14-13.2L156.14-13.2Q156.14-20 160.09-23.5 164.04-27 170.99-27L170.99-27ZM171.39-20.65Q166.69-20.65 166.14-16.2L166.14-16.2 175.84-16.2Q175.84-18.25 174.66-19.45 173.49-20.65 171.39-20.65L171.39-20.65ZM227.33-34.4Q230.53-34.4 233.03-32.93 235.53-31.45 236.93-28.88 238.33-26.3 238.33-23.1L238.33-23.1 238.33-22.45Q238.33-19.25 236.93-16.65 235.53-14.05 233.03-12.58 230.53-11.1 227.33-11.1L227.33-11.1 219.08-11.1 219.08 0 208.03 0 208.03-34.4 227.33-34.4ZM219.08-26.25L219.08-19.15 223.63-19.15Q225.38-19.15 226.26-20.05 227.13-20.95 227.13-22.5L227.13-22.5 227.13-22.9Q227.13-24.5 226.26-25.38 225.38-26.25 223.63-26.25L223.63-26.25 219.08-26.25ZM259.48-27.05Q260.63-27.05 261.53-26.78 262.43-26.5 262.43-26.45L262.43-26.45 262.43-18.1 259.23-18.1Q256.13-18.1 254.75-16.5 253.38-14.9 253.38-11.75L253.38-11.75 253.38 0 243.43 0 243.43-26.4 251.58-26.4 252.23-22.4Q253.13-24.7 255.08-25.88 257.03-27.05 259.48-27.05L259.48-27.05ZM280.08-27Q287.03-27 291-23.48 294.98-19.95 294.98-13.2L294.98-13.2Q294.98-6.45 291-2.93 287.03 0.6 280.08 0.6L280.08 0.6Q273.13 0.6 269.18-2.9 265.23-6.4 265.23-13.2L265.23-13.2Q265.23-20 269.18-23.5 273.13-27 280.08-27L280.08-27ZM280.08-20.25Q275.18-20.25 275.18-14.6L275.18-14.6 275.18-11.75Q275.18-6.15 280.08-6.15L280.08-6.15Q285.03-6.15 285.03-11.75L285.03-11.75 285.03-14.6Q285.03-20.25 280.08-20.25L280.08-20.25Z" opacity="1" transform="matrix(1,0,0,1,0,0)" fill="#000000" class="wordmark-text-0" data-fill-palette-color="primary" id="text-0"></path></svg></g></svg></g><g transform="matrix(1,0,0,1,0,47.81482152409507)"><svg viewBox="0 0 244.43135999999998 13.636649862813243" height="13.636649862813243" width="244.43135999999998"><g transform="matrix(1,0,0,1,0,0)"><svg width="244.43135999999998" viewBox="1.07 -40.53 800.76 44.68" height="13.636649862813243" data-palette-color="#e9f443"><path d="M25.49-27.1L25.49-27.1Q22.31-30.22 18.46-30.22L18.46-30.22Q14.79-30.22 11.43-27.44L11.43-27.44Q7.18-23.93 5.57-18.36L5.57-18.36Q4.98-16.36 4.98-15.04 4.98-13.72 5.08-12.99L5.08-12.99Q5.08-8.15 8.35-5.57L8.35-5.57Q11.43-3.17 16.21-3.17L16.21-3.17Q22.75-3.71 28.76-8.2L28.76-8.2Q30.42-9.47 32.28-10.64L32.28-10.64Q32.96-10.64 33.67-10.45 34.38-10.25 34.38-9.33L34.38-9.33Q29.54-5.13 26.22-3.27L26.22-3.27Q20.07 0.05 15.09 0.05L15.09 0.05Q14.75 0.05 14.45 0.05L14.45 0.05Q9.03 0.05 5.18-3.32L5.18-3.32Q1.07-6.88 1.07-12.21L1.07-12.21Q1.07-16.21 2.51-19.87 3.96-23.54 6.47-26.34 8.98-29.15 12.43-30.81 15.87-32.47 19.82-32.47L19.82-32.47Q23.19-32.47 24.22-31.54L24.22-31.54Q25.49-30.42 25.49-27.1ZM37.94-9.28L37.94-9.28Q37.94-15.04 42.92-18.55L42.92-18.55Q46.87-21.34 52.44-21.92L52.44-21.92Q52.73-21.92 53.81-21.92 54.88-21.92 56.69-21.29L56.69-21.29Q60.69-19.92 62.16-16.46L62.16-16.46Q62.74-15.09 62.74-14.14 62.74-13.18 62.69-12.79L62.69-12.79Q62.69-6.69 58.05-3.17L58.05-3.17Q53.76 0.05 47.31 0.05L47.31 0.05Q42.67 0.05 40.31-2.1 37.94-4.25 37.94-9.28ZM41.31-8.11L41.31-8.11Q41.31-5.08 42.92-4L42.92-4Q44.14-3.22 47.02-3.22 49.9-3.22 52.1-3.66 54.29-4.1 56-5.18L56-5.18Q59.67-7.52 59.67-12.45L59.67-12.45Q59.67-15.38 58.1-17.24L58.1-17.24Q56.39-19.24 53.61-19.24L53.61-19.24Q51.71-18.9 49.78-18.51 47.85-18.12 46.14-16.99L46.14-16.99Q42.43-14.6 41.31-8.11ZM66.06-9.28L66.06-9.28Q66.06-15.04 71.04-18.55L71.04-18.55Q75-21.34 80.56-21.92L80.56-21.92Q80.85-21.92 81.93-21.92 83-21.92 84.81-21.29L84.81-21.29Q88.81-19.92 90.28-16.46L90.28-16.46Q90.86-15.09 90.86-14.14 90.86-13.18 90.82-12.79L90.82-12.79Q90.82-6.69 86.18-3.17L86.18-3.17Q81.88 0.05 75.43 0.05L75.43 0.05Q70.8 0.05 68.43-2.1 66.06-4.25 66.06-9.28ZM69.43-8.11L69.43-8.11Q69.43-5.08 71.04-4L71.04-4Q72.26-3.22 75.14-3.22 78.02-3.22 80.22-3.66 82.42-4.1 84.13-5.18L84.13-5.18Q87.79-7.52 87.79-12.45L87.79-12.45Q87.79-15.38 86.23-17.24L86.23-17.24Q84.52-19.24 81.73-19.24L81.73-19.24Q79.83-18.9 77.9-18.51 75.97-18.12 74.26-16.99L74.26-16.99Q70.55-14.6 69.43-8.11ZM97.8-8.89L97.8-8.89 98.04-4.64Q98.04-0.73 96.18 0.1L96.18 0.1Q95.79 0.24 95.26 0.24 94.72 0.24 93.99 0L93.99 0 94.04-18.26Q94.04-22.22 93.57-26.2 93.11-30.18 93.11-34.13L93.11-34.13Q93.11-35.69 94.77-35.69L94.77-35.69 95.16-35.69Q95.5-35.69 95.6-35.64L95.6-35.64Q96.33-32.62 96.57-28.32L96.57-28.32Q97.11-18.8 97.55-15.53L97.55-15.53Q98.38-15.97 101.26-18.02 104.14-20.07 105.9-21.31 107.66-22.56 109.22-23.63L109.22-23.63Q112.88-26.03 113.81-26.03L113.81-26.03Q114.59-26.03 115.03-25.1L115.03-25.1Q112.59-22.02 107.17-18.26L107.17-18.26Q104.97-16.75 102.8-15.26 100.63-13.77 98.82-12.16L98.82-12.16Q102.09-11.28 105.02-10.33 107.95-9.38 110.69-8.59L110.69-8.59Q116.98-6.74 121.53-6.49L121.53-6.49Q121.53-5.18 121.28-4.79L121.28-4.79Q120.84-4.1 119.47-4L119.47-4 119.08-4Q116.11-4.83 111.17-5.86L111.17-5.86Q101.46-7.86 97.8-8.89ZM146.28-21.34L146.28-21.34 146.18-33.5 150.09-33.35 149.65-4.74 175.38-4Q176.16-3.76 176.16-3.17 176.16-2.59 175.43-1.95L175.43-1.95Q174.01-0.68 172.2-0.68L172.2-0.68Q171.76-0.68 171.28-0.78L171.28-0.78 145.06-1.03Q146.28-5.57 146.28-21.34ZM179.62-22.95L182.7-22.95Q183.33-13.82 183.77-1.81L183.77-1.81Q183.48-0.29 181.43-0.29L181.43-0.29Q180.89-0.29 180.33-0.51 179.77-0.73 179.62-1.12L179.62-1.12 179.62-22.95ZM178.16-29.59L178.16-29.59Q178.16-31.3 180.16-31.3L180.16-31.3Q181.48-31.3 182.31-30.71L182.31-30.71Q182.46-30.18 182.46-29.66 182.46-29.15 182.07-28.66L182.07-28.66Q181.67-28.17 180.89-28.17 180.11-28.17 179.33-28.54 178.55-28.91 178.16-29.59ZM190.71-8.89L190.71-8.89 190.95-4.64Q190.95-0.73 189.09 0.1L189.09 0.1Q188.7 0.24 188.17 0.24 187.63 0.24 186.9 0L186.9 0 186.95-18.26Q186.95-22.22 186.48-26.2 186.02-30.18 186.02-34.13L186.02-34.13Q186.02-35.69 187.68-35.69L187.68-35.69 188.07-35.69Q188.41-35.69 188.51-35.64L188.51-35.64Q189.24-32.62 189.48-28.32L189.48-28.32Q190.02-18.8 190.46-15.53L190.46-15.53Q191.29-15.97 194.17-18.02 197.05-20.07 198.81-21.31 200.57-22.56 202.13-23.63L202.13-23.63Q205.79-26.03 206.72-26.03L206.72-26.03Q207.5-26.03 207.94-25.1L207.94-25.1Q205.5-22.02 200.08-18.26L200.08-18.26Q197.88-16.75 195.71-15.26 193.54-13.77 191.73-12.16L191.73-12.16Q195-11.28 197.93-10.33 200.86-9.38 203.6-8.59L203.6-8.59Q209.89-6.74 214.44-6.49L214.44-6.49Q214.44-5.18 214.19-4.79L214.19-4.79Q213.75-4.1 212.38-4L212.38-4 211.99-4Q209.02-4.83 204.08-5.86L204.08-5.86Q194.37-7.86 190.71-8.89ZM226.54-3.42L226.54-3.42Q230.84-3.42 239.48-7.32L239.48-7.32Q240.02-7.32 240.36-6.96 240.7-6.59 240.7-6.1L240.7-6.1Q238.75-2.78 233.23-0.93 227.71 0.93 222.93-0.29L222.93-0.29Q217.51-1.71 216.34-6.4L216.34-6.4Q216.24-7.32 216.24-8.89 216.24-10.45 217.05-13.01 217.85-15.58 219.8-17.87 221.76-20.17 224.39-21.48 227.03-22.8 230.01-22.8L230.01-22.8Q232.84-22.8 236.36-20.85L236.36-20.85Q238.02-19.92 238.99-18.75 239.97-17.58 239.97-16.36L239.97-16.36Q239.97-16.02 239.92-15.67L239.92-15.67Q239.82-12.7 237.04-11.91L237.04-11.91Q235.82-11.57 234.21-11.57L234.21-11.57 227.18-11.87Q223.66-11.87 221.81-10.35L221.81-10.35Q220.73-9.52 220.29-7.86L220.29-7.86Q221.51-3.42 226.54-3.42ZM235.26-18.51Q234.16-19.29 232.99-19.63 231.82-19.97 231.03-19.97 230.25-19.97 228.5-19.46 226.74-18.95 225.37-18.31L225.37-18.31Q222-16.75 222-15.04L222-15.04Q225.91-14.7 227.86-14.7L227.86-14.7Q233.28-14.7 235.19-15.63L235.19-15.63Q236.36-16.11 236.36-16.85L236.36-16.85Q236.36-17.72 235.26-18.51ZM282.84-8.11L282.84-8.11Q279.17-2.34 273.07-0.98L273.07-0.98Q271.65-0.68 270.51-0.68 269.36-0.68 268.6-0.71 267.85-0.73 266.92-0.93 265.99-1.12 265.21-1.56L265.21-1.56Q263.4-2.59 263.4-4.44L263.4-4.44Q263.21-5.32 263.21-6.42 263.21-7.52 263.7-9.33 264.18-11.13 265.48-13.23 266.77-15.33 268.63-17.09L268.63-17.09Q272.48-20.8 276.98-21.88L276.98-21.88Q278.3-22.17 279.39-22.17 280.49-22.17 281.37-22.02L281.37-22.02Q284.2-22.02 285.18-18.16L285.18-18.16Q285.81-15.72 285.94-11.35 286.06-6.98 286.18-4.61 286.3-2.25 286.79-0.29L286.79-0.29 283.91-0.29Q283.72-1.61 283.62-2.64 283.52-3.66 283.42-4.54L283.42-4.54Q283.18-6.59 282.84-8.11ZM282.64-15.67L282.64-15.67Q282.64-18.51 279.86-18.51L279.86-18.51Q279.52-18.55 279.17-18.55L279.17-18.55Q275.61-18.55 271.65-15.14L271.65-15.14Q269.8-13.57 268.48-11.62L268.48-11.62Q266.53-8.84 266.53-6.64L266.53-6.64Q266.53-3.76 269.85-3.22L269.85-3.22Q274.24-3.32 278.25-7.23L278.25-7.23Q279.96-8.94 281.08-10.94L281.08-10.94Q282.64-13.62 282.64-15.67ZM311.84 0.1L311.84 0.1 309.64 0 309.64-11.38Q309.88-15.04 310.03-17.87 310.18-20.7 310.57-22.75 310.96-24.8 311.84-26.2 312.71-27.59 314.47-28.42L314.47-28.42Q317.65-29.98 326.14-29.98L326.14-29.98Q329.8-29.98 332.34-29.27 334.88-28.56 336.1-27.93L336.1-27.93Q338.89-26.56 338.89-24.12 338.89-21.68 337.49-19.7 336.1-17.72 333.88-16.28 331.66-14.84 328.88-13.92 326.09-12.99 323.31-12.4L323.31-12.4Q318.33-11.43 313.74-11.43L313.74-11.43 313.54-0.49Q313.54 0.1 311.84 0.1ZM313.69-16.94L313.69-16.94Q313.69-14.5 315.79-14.5L315.79-14.5Q316.08-14.5 316.82-14.53 317.55-14.55 319.38-14.67 321.21-14.79 323.26-15.16 325.31-15.53 327.39-16.11 329.46-16.7 331.12-17.58L331.12-17.58Q334.88-19.63 334.88-22.8L334.88-22.8Q334.15-25.98 329.07-26.86L329.07-26.86Q327.56-27.15 326.36-27.15 325.17-27.15 323.53-27.03 321.89-26.9 319.75-26.27 317.6-25.63 316.13-24.56 314.67-23.49 314.52-22.07L314.52-22.07Q314.47-21.48 314.28-20.7L314.28-20.7Q313.69-18.21 313.69-16.94ZM364.96-17.82L364.96-17.82Q362.91-19.29 359.68-19.29L359.68-19.29Q356.66-19.29 354.07-18.16L354.07-18.16Q349.19-16.11 347.38-12.89L347.38-12.89Q346.6-11.43 346.6-9.77L346.6-9.77Q346.6-9.47 346.6-8.13 346.6-6.79 347.09-4.52 347.57-2.25 347.57 0.1L347.57 0.1Q346.55 0.15 345.91 0.34 345.28 0.54 344.84 0.54 344.4 0.54 344.08 0.15 343.77-0.24 343.38-1.37L343.38-1.37Q343.33-1.66 343.18-3.03 343.03-4.39 342.81-6.35 342.59-8.3 342.33-10.62 342.06-12.94 341.81-15.19L341.81-15.19Q341.28-20.07 340.98-22.36L340.98-22.36Q340.98-23.54 342.69-23.54L342.69-23.54Q343.72-23.54 344.3-22.68 344.89-21.83 345.23-20.73 345.57-19.63 345.7-18.55 345.82-17.48 345.91-17.04L345.91-17.04Q352.36-22.8 361.93-22.8L361.93-22.8Q363-22.8 364.18-22.75L364.18-22.75Q364.47-22.8 364.91-22.8 365.35-22.8 365.79-22.22L365.79-22.22Q366.32-21.53 366.32-20.56L366.32-20.56Q366.32-18.12 364.96-17.82ZM369.79-9.28L369.79-9.28Q369.79-15.04 374.77-18.55L374.77-18.55Q378.72-21.34 384.29-21.92L384.29-21.92Q384.58-21.92 385.66-21.92 386.73-21.92 388.54-21.29L388.54-21.29Q392.54-19.92 394.01-16.46L394.01-16.46Q394.59-15.09 394.59-14.14 394.59-13.18 394.55-12.79L394.55-12.79Q394.55-6.69 389.91-3.17L389.91-3.17Q385.61 0.05 379.16 0.05L379.16 0.05Q374.53 0.05 372.16-2.1 369.79-4.25 369.79-9.28ZM373.16-8.11L373.16-8.11Q373.16-5.08 374.77-4L374.77-4Q375.99-3.22 378.87-3.22 381.75-3.22 383.95-3.66 386.15-4.1 387.86-5.18L387.86-5.18Q391.52-7.52 391.52-12.45L391.52-12.45Q391.52-15.38 389.96-17.24L389.96-17.24Q388.25-19.24 385.46-19.24L385.46-19.24Q383.56-18.9 381.63-18.51 379.7-18.12 377.99-16.99L377.99-16.99Q374.28-14.6 373.16-8.11ZM394.3 4.05L397.72-4.2Q398.01-4.83 398.4-4.93 398.79-5.03 399.23-5.03 399.67-5.03 400.06-4.93L400.06-4.93Q400.74-4.74 401.04-4.1L401.04-4.1Q401.04-4 401.04-3.83 401.04-3.66 400.84-3.2 400.65-2.73 400.23-1.98 399.82-1.22 399.33-0.42 398.84 0.39 398.35 1.12 397.86 1.86 397.64 2.25 397.42 2.64 397.08 2.98L397.08 2.98Q395.91 4.15 394.88 4.15L394.88 4.15Q394.59 4.15 394.3 4.05L394.3 4.05ZM430.62-30.76L441.51-31.01Q446.39-31.01 448-30.37L448-30.37 448-27.98Q446.69-27.78 444.39-27.76 442.1-27.73 439.51-27.69L439.51-27.69Q432.28-27.54 429.65-26.95L429.65-26.95Q428.81-23.05 428.86-21.63 428.91-20.21 428.96-19.43L428.96-19.43Q429.16-17.53 429.16-14.94L429.16-14.94Q432.48-14.94 436.75-15.53 441.02-16.11 443.37-16.38 445.71-16.65 448.2-16.65L448.2-16.65 448.2-13.96 429.5-11.62 429.79-3.61Q434.63-3.61 439.68-4.08 444.73-4.54 447.35-4.76 449.96-4.98 452.89-4.98L452.89-4.98Q452.89-4 452.3-3.13L452.3-3.13Q451.13-1.56 450.2-2.2L450.2-2.2Q441.61-1.27 434.85-0.73 428.08-0.2 425.74 0L425.74 0 425.93-31.15Q427.2-30.76 430.62-30.76L430.62-30.76ZM474.37-8.11L474.37-8.11Q470.71-2.34 464.6-0.98L464.6-0.98Q463.19-0.68 462.04-0.68 460.89-0.68 460.14-0.71 459.38-0.73 458.45-0.93 457.52-1.12 456.74-1.56L456.74-1.56Q454.94-2.59 454.94-4.44L454.94-4.44Q454.74-5.32 454.74-6.42 454.74-7.52 455.23-9.33 455.72-11.13 457.01-13.23 458.3-15.33 460.16-17.09L460.16-17.09Q464.02-20.8 468.51-21.88L468.51-21.88Q469.83-22.17 470.93-22.17 472.03-22.17 472.9-22.02L472.9-22.02Q475.74-22.02 476.71-18.16L476.71-18.16Q477.35-15.72 477.47-11.35 477.59-6.98 477.71-4.61 477.84-2.25 478.32-0.29L478.32-0.29 475.44-0.29Q475.25-1.61 475.15-2.64 475.05-3.66 474.96-4.54L474.96-4.54Q474.71-6.59 474.37-8.11ZM474.17-15.67L474.17-15.67Q474.17-18.51 471.39-18.51L471.39-18.51Q471.05-18.55 470.71-18.55L470.71-18.55Q467.14-18.55 463.19-15.14L463.19-15.14Q461.33-13.57 460.01-11.62L460.01-11.62Q458.06-8.84 458.06-6.64L458.06-6.64Q458.06-3.76 461.38-3.22L461.38-3.22Q465.78-3.32 469.78-7.23L469.78-7.23Q471.49-8.94 472.61-10.94L472.61-10.94Q474.17-13.62 474.17-15.67ZM487.99-4.69L487.99-4.69 488.09-12.5Q488.09-14.36 487.75-15.67L487.75-15.67 480.18-15.67 480.08-19.04 487.4-19.04 487.4-31.64Q487.55-32.08 487.99-32.52L487.99-32.52Q488.67-33.2 489.14-33.2 489.6-33.2 489.94-33.11 490.28-33.01 490.68-32.42L490.68-32.42Q491.46-29.2 491.46-22.71L491.46-22.71Q491.46-21.09 491.6-19.53L491.6-19.53Q493.17-19.73 494.73-19.73L494.73-19.73Q494.73-19.73 497.27-19.73L497.27-19.73Q498.19-19.73 498.98-19.82L498.98-19.82 498.83-16.31 491.7-16.5 491.94 0.34Q491.07 0.73 490.43 0.73L490.43 0.73Q487.99 0.73 487.99-4.69ZM523.43-21.34L523.43-21.34 523.34-33.5 527.24-33.35 526.8-4.74 552.54-4Q553.32-3.76 553.32-3.17 553.32-2.59 552.58-1.95L552.58-1.95Q551.17-0.68 549.36-0.68L549.36-0.68Q548.92-0.68 548.43-0.78L548.43-0.78 522.21-1.03Q523.43-5.57 523.43-21.34ZM556.78-22.95L559.86-22.95Q560.49-13.82 560.93-1.81L560.93-1.81Q560.64-0.29 558.59-0.29L558.59-0.29Q558.05-0.29 557.49-0.51 556.93-0.73 556.78-1.12L556.78-1.12 556.78-22.95ZM555.32-29.59L555.32-29.59Q555.32-31.3 557.32-31.3L557.32-31.3Q558.64-31.3 559.47-30.71L559.47-30.71Q559.61-30.18 559.61-29.66 559.61-29.15 559.22-28.66L559.22-28.66Q558.83-28.17 558.05-28.17 557.27-28.17 556.49-28.54 555.71-28.91 555.32-29.59ZM567.86-8.89L567.86-8.89 568.11-4.64Q568.11-0.73 566.25 0.1L566.25 0.1Q565.86 0.24 565.32 0.24 564.79 0.24 564.05 0L564.05 0 564.1-18.26Q564.1-22.22 563.64-26.2 563.17-30.18 563.17-34.13L563.17-34.13Q563.17-35.69 564.84-35.69L564.84-35.69 565.23-35.69Q565.57-35.69 565.67-35.64L565.67-35.64Q566.4-32.62 566.64-28.32L566.64-28.32Q567.18-18.8 567.62-15.53L567.62-15.53Q568.45-15.97 571.33-18.02 574.21-20.07 575.97-21.31 577.73-22.56 579.29-23.63L579.29-23.63Q582.95-26.03 583.88-26.03L583.88-26.03Q584.66-26.03 585.1-25.1L585.1-25.1Q582.66-22.02 577.24-18.26L577.24-18.26Q575.04-16.75 572.87-15.26 570.69-13.77 568.89-12.16L568.89-12.16Q572.16-11.28 575.09-10.33 578.02-9.38 580.75-8.59L580.75-8.59Q587.05-6.74 591.59-6.49L591.59-6.49Q591.59-5.18 591.35-4.79L591.35-4.79Q590.91-4.1 589.54-4L589.54-4 589.15-4Q586.17-4.83 581.24-5.86L581.24-5.86Q571.52-7.86 567.86-8.89ZM603.7-3.42L603.7-3.42Q608-3.42 616.64-7.32L616.64-7.32Q617.18-7.32 617.52-6.96 617.86-6.59 617.86-6.1L617.86-6.1Q615.91-2.78 610.39-0.93 604.87 0.93 600.09-0.29L600.09-0.29Q594.67-1.71 593.49-6.4L593.49-6.4Q593.4-7.32 593.4-8.89 593.4-10.45 594.2-13.01 595.01-15.58 596.96-17.87 598.91-20.17 601.55-21.48 604.19-22.8 607.17-22.8L607.17-22.8Q610-22.8 613.51-20.85L613.51-20.85Q615.17-19.92 616.15-18.75 617.13-17.58 617.13-16.36L617.13-16.36Q617.13-16.02 617.08-15.67L617.08-15.67Q616.98-12.7 614.2-11.91L614.2-11.91Q612.98-11.57 611.37-11.57L611.37-11.57 604.33-11.87Q600.82-11.87 598.96-10.35L598.96-10.35Q597.89-9.52 597.45-7.86L597.45-7.86Q598.67-3.42 603.7-3.42ZM612.42-18.51Q611.32-19.29 610.15-19.63 608.97-19.97 608.19-19.97 607.41-19.97 605.65-19.46 603.9-18.95 602.53-18.31L602.53-18.31Q599.16-16.75 599.16-15.04L599.16-15.04Q603.06-14.7 605.02-14.7L605.02-14.7Q610.44-14.7 612.34-15.63L612.34-15.63Q613.51-16.11 613.51-16.85L613.51-16.85Q613.51-17.72 612.42-18.51ZM659.99-8.11L659.99-8.11Q656.33-2.34 650.23-0.98L650.23-0.98Q648.81-0.68 647.66-0.68 646.52-0.68 645.76-0.71 645-0.73 644.08-0.93 643.15-1.12 642.37-1.56L642.37-1.56Q640.56-2.59 640.56-4.44L640.56-4.44Q640.36-5.32 640.36-6.42 640.36-7.52 640.85-9.33 641.34-11.13 642.64-13.23 643.93-15.33 645.78-17.09L645.78-17.09Q649.64-20.8 654.13-21.88L654.13-21.88Q655.45-22.17 656.55-22.17 657.65-22.17 658.53-22.02L658.53-22.02Q661.36-22.02 662.34-18.16L662.34-18.16Q662.97-15.72 663.09-11.35 663.22-6.98 663.34-4.61 663.46-2.25 663.95-0.29L663.95-0.29 661.07-0.29Q660.87-1.61 660.77-2.64 660.68-3.66 660.58-4.54L660.58-4.54Q660.34-6.59 659.99-8.11ZM659.8-15.67L659.8-15.67Q659.8-18.51 657.02-18.51L657.02-18.51Q656.67-18.55 656.33-18.55L656.33-18.55Q652.77-18.55 648.81-15.14L648.81-15.14Q646.96-13.57 645.64-11.62L645.64-11.62Q643.68-8.84 643.68-6.64L643.68-6.64Q643.68-3.76 647.01-3.22L647.01-3.22Q651.4-3.32 655.4-7.23L655.4-7.23Q657.11-8.94 658.24-10.94L658.24-10.94Q659.8-13.62 659.8-15.67ZM710.43-27.1L710.43-27.1Q707.25-30.22 703.4-30.22L703.4-30.22Q699.73-30.22 696.37-27.44L696.37-27.44Q692.12-23.93 690.51-18.36L690.51-18.36Q689.92-16.36 689.92-15.04 689.92-13.72 690.02-12.99L690.02-12.99Q690.02-8.15 693.29-5.57L693.29-5.57Q696.37-3.17 701.15-3.17L701.15-3.17Q707.69-3.71 713.7-8.2L713.7-8.2Q715.36-9.47 717.22-10.64L717.22-10.64Q717.9-10.64 718.61-10.45 719.31-10.25 719.31-9.33L719.31-9.33Q714.48-5.13 711.16-3.27L711.16-3.27Q705.01 0.05 700.03 0.05L700.03 0.05Q699.69 0.05 699.39 0.05L699.39 0.05Q693.97 0.05 690.12-3.32L690.12-3.32Q686.01-6.88 686.01-12.21L686.01-12.21Q686.01-16.21 687.45-19.87 688.89-23.54 691.41-26.34 693.92-29.15 697.37-30.81 700.81-32.47 704.76-32.47L704.76-32.47Q708.13-32.47 709.16-31.54L709.16-31.54Q710.43-30.42 710.43-27.1ZM744.61-0.68L744.61-0.68Q744.17 0.15 742.33 0.15 740.5 0.15 740.5-1.17L740.5-1.17Q740.5-6.93 740.26-9.08L740.26-9.08Q739.82-13.82 738.4-14.16L738.4-14.16Q734.89-14.84 732.67-14.84 730.45-14.84 729-13.5 727.56-12.16 726.81-9.06 726.05-5.96 725.71-0.34L725.71-0.34 721.95-0.34Q722.05-3.13 722.05-5.52 722.05-7.91 721.95-11.21 721.85-14.5 721.7-18.41L721.7-18.41Q721.46-22.9 721.46-26 721.46-29.1 721.85-31.69L721.85-31.69Q722.34-32.62 723.27-32.62L723.27-32.62Q724.39-32.62 725.03-31.81 725.66-31.01 725.71-30.37L725.71-30.37 725.46-22.31Q725.46-17.77 725.9-15.53L725.9-15.53Q730.3-18.46 734.99-18.46L734.99-18.46Q736.5-18.46 738.21-18.21L738.21-18.21Q741.87-16.31 742.99-14.16L742.99-14.16Q743.53-13.04 743.68-11.77 743.82-10.5 743.87-8.89L743.87-8.89Q744.17-3.32 744.61-0.68ZM756.37-3.42L756.37-3.42Q760.67-3.42 769.31-7.32L769.31-7.32Q769.85-7.32 770.19-6.96 770.53-6.59 770.53-6.1L770.53-6.1Q768.58-2.78 763.06-0.93 757.54 0.93 752.76-0.29L752.76-0.29Q747.34-1.71 746.17-6.4L746.17-6.4Q746.07-7.32 746.07-8.89 746.07-10.45 746.87-13.01 747.68-15.58 749.63-17.87 751.59-20.17 754.22-21.48 756.86-22.8 759.84-22.8L759.84-22.8Q762.67-22.8 766.18-20.85L766.18-20.85Q767.84-19.92 768.82-18.75 769.8-17.58 769.8-16.36L769.8-16.36Q769.8-16.02 769.75-15.67L769.75-15.67Q769.65-12.7 766.87-11.91L766.87-11.91Q765.65-11.57 764.04-11.57L764.04-11.57 757.01-11.87Q753.49-11.87 751.63-10.35L751.63-10.35Q750.56-9.52 750.12-7.86L750.12-7.86Q751.34-3.42 756.37-3.42ZM765.09-18.51Q763.99-19.29 762.82-19.63 761.64-19.97 760.86-19.97 760.08-19.97 758.32-19.46 756.57-18.95 755.2-18.31L755.2-18.31Q751.83-16.75 751.83-15.04L751.83-15.04Q755.74-14.7 757.69-14.7L757.69-14.7Q763.11-14.7 765.01-15.63L765.01-15.63Q766.18-16.11 766.18-16.85L766.18-16.85Q766.18-17.72 765.09-18.51ZM801.48-16.31L801.48-16.31Q801.73-16.31 801.73-14.99 801.73-13.67 801.83-13.18L801.83-13.18 785.08-11.13 785.96-0.29 782-0.49Q782-4.88 781.03-10.55L781.03-10.55 774.68-8.11Q774.04-8.11 773.6-8.84L773.6-8.84Q772.82-10.11 772.82-11.13L772.82-11.13 780.24-13.77Q779.27-22.17 779.27-27.42 779.27-32.67 780.15-35.6 781.03-38.53 782.71-39.53 784.4-40.53 786.3-40.53 788.2-40.53 790.18-39.7 792.16-38.87 793.97-37.6 795.77-36.33 797.04-34.74 798.31-33.15 798.31-31.64L798.31-31.64Q798.31-30.47 798.07-29.98L798.07-29.98Q796.11-32.71 793.33-34.86L793.33-34.86Q790.01-37.4 787.08-37.4L787.08-37.4Q784.3-37.4 783.37-33.45L783.37-33.45Q782.93-31.4 782.93-27.66 782.93-23.93 783.13-20.83 783.32-17.72 784.3-14.6L784.3-14.6Q787.32-14.6 791.08-15.14L791.08-15.14Q798.31-16.26 801.48-16.31Z" opacity="1" transform="matrix(1,0,0,1,0,0)" fill="#000000" class="slogan-text-1" data-fill-palette-color="secondary" id="text-1"></path></svg></g></svg></g></svg></g></svg></g><g transform="matrix(1,0,0,1,62.228413316236434,0)"><svg viewBox="0 0 119.97453336752712 84.9259334567073" height="84.9259334567073" width="119.97453336752712"><g><svg xmlns="http://www.w3.org/2000/svg" xmlns:xlink="http://www.w3.org/1999/xlink" version="1.1" x="0" y="0" viewBox="10.207 28.231 123.66600223256646 87.53899999999999" enable-background="new 0 0 144.083 144" xml:space="preserve" height="84.9259334567073" width="119.97453336752712" class="icon-icon-0" data-fill-palette-color="accent" id="icon-0"><path d="M130.875 28.231H105.621A3 3 0 0 0 102.621 31.231V49.164H101.754V44.621A3 3 0 0 0 98.754 41.621H56.295A3 3 0 0 0 53.295 44.621V49.164H41.461V31.231A3 3 0 0 0 38.461 28.231H13.207A3 3 0 0 0 10.207 31.231V88.32A3 3 0 0 0 13.207 91.32H38.461A3 3 0 0 0 41.461 88.32V70.387H42.395V79.625C42.395 79.838 42.418 80.045 42.46 80.245 42.468 80.28 42.483 80.312 42.492 80.348 42.533 80.512 42.581 80.673 42.647 80.825 42.67 80.879 42.704 80.927 42.73 80.979 42.795 81.106 42.861 81.232 42.943 81.349 42.984 81.406 43.032 81.456 43.077 81.511 43.161 81.614 43.246 81.714 43.343 81.806 43.36 81.822 43.371 81.84 43.388 81.856L56.186 93.354V112.77A3 3 0 0 0 59.186 115.77H90.637A3 3 0 0 0 93.637 112.77V93.56L101.572 71.725C101.589 71.681 101.59 71.634 101.603 71.589A2.8 2.8 0 0 0 101.733 70.885C101.737 70.823 101.752 70.764 101.752 70.7V70.387H102.619V88.32A3 3 0 0 0 105.619 91.32H130.873A3 3 0 0 0 133.873 88.32V31.231C133.875 29.575 132.533 28.231 130.875 28.231M95.754 67.699H88.233V47.621H95.754zM73.17 47.621H82.233V67.699H73.17zM67.17 47.621V58.775H59.295V47.621zM48.395 76.624V64.775H66.463V76.624zM38.461 64.387A3 3 0 0 0 35.461 67.387V85.32H16.207V34.231H35.461V52.164A3 3 0 0 0 38.461 55.164H53.295V58.775H45.395A3 3 0 0 0 42.395 61.775V64.386H38.461zM87.82 92.006A3 3 0 0 0 87.639 93.03V109.768H62.188V92.015C62.188 91.163 61.827 90.352 61.193 89.784L53.224 82.625H69.463A3 3 0 0 0 72.463 79.625V73.7H94.472zM127.875 85.32H108.621V67.387A3 3 0 0 0 105.621 64.387H101.754V55.164H105.621A3 3 0 0 0 108.621 52.164V34.231H127.875z" fill="#000000" data-fill-palette-color="accent"></path></svg></g></svg></g><g></g></svg></g></svg></g></svg></g><g><path d="M113.325 38.244A120.062 120.062 0 0 1 282.195 38.244L278.768 38.244A116.635 116.635 0 0 0 116.752 38.244L113.325 38.244M113.325 208.956A120.062 120.062 0 0 0 282.195 208.956L278.768 208.956A116.635 116.635 0 0 1 116.752 208.956L113.325 208.956" fill="#000000" stroke="transparent" data-fill-palette-color="tertiary"></path></g></svg></g><defs></defs></svg><rect width="395.52" height="247.2" fill="none" stroke="none" visibility="hidden"></rect></g></svg></g></svg>